<svg width="606" height="22" viewBox="0 0 606 22" fill="none" xmlns="http://www.w3.org/2000/svg">
<path d="M603.301 21.7031V19.1117H605.998V21.7031H603.301Z" fill="white"/>
<path d="M590.103 22C588.135 22 586.552 21.937 585.352 21.811C584.162 21.6851 583.258 21.4511 582.64 21.1092C582.031 20.7673 581.618 20.2814 581.403 19.6515C581.197 19.0217 581.094 18.2029 581.094 17.1951H583.68C583.68 17.762 583.722 18.2209 583.806 18.5718C583.891 18.9137 584.13 19.1791 584.523 19.3681C584.917 19.5481 585.554 19.674 586.435 19.746C587.325 19.809 588.571 19.8405 590.173 19.8405C591.869 19.8405 593.186 19.809 594.123 19.746C595.069 19.674 595.749 19.5481 596.161 19.3681C596.573 19.1791 596.821 18.9092 596.906 18.5583C596.999 18.2074 597.046 17.744 597.046 17.1681C597.046 16.4663 596.981 15.9399 596.85 15.589C596.718 15.238 596.409 15.0041 595.922 14.8871C595.435 14.7611 594.657 14.6937 593.589 14.6847L587.152 14.6172C585.493 14.5992 584.228 14.4642 583.357 14.2123C582.485 13.9603 581.89 13.5194 581.572 12.8896C581.253 12.2507 581.094 11.3464 581.094 10.1767C581.094 9.08793 581.267 8.24662 581.614 7.65276C581.97 7.05889 582.523 6.63599 583.272 6.38405C584.022 6.1321 584.996 5.98364 586.196 5.93865C587.395 5.88466 588.843 5.85767 590.539 5.85767C592.535 5.85767 594.118 5.91615 595.289 6.03313C596.47 6.1501 597.351 6.37055 597.932 6.69448C598.522 7.0184 598.906 7.49079 599.084 8.11165C599.272 8.72351 599.365 9.52433 599.365 10.5141H596.779C596.779 9.92924 596.737 9.47034 596.653 9.13742C596.568 8.7955 596.339 8.54805 595.964 8.39509C595.599 8.23313 594.999 8.12965 594.165 8.08466C593.34 8.03967 592.179 8.01717 590.679 8.01717C588.974 8.01717 587.648 8.03517 586.702 8.07116C585.755 8.10715 585.071 8.19264 584.65 8.3276C584.228 8.46257 583.97 8.67852 583.877 8.97546C583.783 9.26339 583.736 9.6638 583.736 10.1767C583.736 10.6986 583.764 11.1125 583.82 11.4184C583.886 11.7153 584.05 11.9403 584.312 12.0932C584.575 12.2462 585.001 12.3497 585.591 12.4037C586.191 12.4487 587.025 12.4757 588.093 12.4847L593.645 12.5386C595.313 12.5566 596.578 12.6916 597.44 12.9436C598.311 13.1865 598.902 13.6409 599.211 14.3067C599.529 14.9636 599.689 15.9174 599.689 17.1681C599.689 18.2928 599.515 19.1791 599.169 19.827C598.831 20.4748 598.288 20.9562 597.538 21.2712C596.789 21.5771 595.8 21.775 594.573 21.865C593.354 21.955 591.865 22 590.103 22Z" fill="white"/>
<path d="M567.39 22C565.582 22 564.045 21.91 562.78 21.7301C561.515 21.5591 560.494 21.2037 559.716 20.6638C558.938 20.1149 558.372 19.2961 558.016 18.2074C557.659 17.1186 557.481 15.6654 557.481 13.8478C557.481 12.0842 557.659 10.6716 558.016 9.60981C558.372 8.54805 558.938 7.74723 559.716 7.20736C560.494 6.66748 561.515 6.30756 562.78 6.1276C564.045 5.94764 565.582 5.85766 567.39 5.85766C569.124 5.85766 570.585 5.98363 571.775 6.23558C572.975 6.48752 573.917 7.04989 574.601 7.92269V0.971771H577.299V21.7031H574.601V19.9215C573.917 20.8033 572.975 21.3701 571.775 21.6221C570.585 21.874 569.124 22 567.39 22ZM574.601 13.8478C574.601 12.5611 574.507 11.5309 574.319 10.757C574.132 9.98322 573.785 9.40286 573.279 9.01594C572.773 8.62003 572.047 8.35459 571.101 8.21962C570.154 8.08466 568.918 8.01717 567.39 8.01717C565.722 8.01717 564.401 8.08466 563.427 8.21962C562.452 8.35459 561.735 8.62003 561.276 9.01594C560.817 9.40286 560.517 9.98322 560.377 10.757C560.246 11.5309 560.18 12.5611 560.18 13.8478C560.18 15.1795 560.246 16.2458 560.377 17.0466C560.517 17.8474 560.817 18.4503 561.276 18.8552C561.735 19.2511 562.452 19.5166 563.427 19.6515C564.401 19.7775 565.722 19.8405 567.39 19.8405C568.918 19.8405 570.154 19.7775 571.101 19.6515C572.047 19.5166 572.773 19.2511 573.279 18.8552C573.785 18.4503 574.132 17.8474 574.319 17.0466C574.507 16.2458 574.601 15.1795 574.601 13.8478Z" fill="white"/>
<path d="M544.354 21.7031V6.1546H547.053V8.30062C547.353 7.84172 547.653 7.45931 547.953 7.15338C548.262 6.84745 548.66 6.6045 549.147 6.42454C549.644 6.24458 550.314 6.11861 551.157 6.04663C552 5.96565 553.111 5.92516 554.488 5.92516V8.09816C552.633 8.09816 551.195 8.16115 550.173 8.28712C549.161 8.41309 548.435 8.62904 547.995 8.93497C547.554 9.2319 547.287 9.64581 547.194 10.1767C547.1 10.7076 547.053 11.3824 547.053 12.2012V21.7031H544.354Z" fill="white"/>
<path d="M530.693 22C528.753 22 527.151 21.901 525.886 21.7031C524.63 21.5141 523.693 21.0912 523.075 20.4344C522.466 19.7775 522.161 18.7562 522.161 17.3705C522.161 15.9579 522.447 14.9231 523.018 14.2663C523.599 13.6004 524.513 13.1685 525.759 12.9705C527.015 12.7726 528.659 12.6736 530.693 12.6736C532.342 12.6736 533.724 12.7096 534.839 12.7816C535.954 12.8536 536.952 12.9795 537.833 13.1595C537.814 11.9628 537.73 11.0225 537.58 10.3386C537.43 9.6458 537.149 9.13292 536.736 8.8C536.324 8.46707 535.72 8.25562 534.923 8.16564C534.136 8.06666 533.087 8.01717 531.775 8.01717C530.276 8.01717 529.1 8.04867 528.247 8.11165C527.404 8.17464 526.79 8.28711 526.406 8.44908C526.022 8.61104 525.778 8.84499 525.675 9.15092C525.581 9.45685 525.534 9.85276 525.534 10.3386H522.836C522.836 9.36687 522.972 8.58405 523.243 7.99018C523.524 7.39632 523.998 6.94642 524.663 6.64049C525.328 6.33456 526.237 6.1276 527.39 6.01963C528.552 5.91165 530.013 5.85767 531.775 5.85767C533.668 5.85767 535.19 5.97464 536.343 6.20859C537.505 6.44253 538.385 6.86544 538.985 7.4773C539.594 8.08016 540.002 8.92597 540.208 10.0147C540.423 11.1035 540.531 12.5072 540.531 14.2258V21.7031H537.833V20.6368C537.514 20.9607 537.074 21.2217 536.511 21.4196C535.949 21.6176 535.2 21.7615 534.263 21.8515C533.335 21.9505 532.145 22 530.693 22ZM530.693 19.8945C532.295 19.8945 533.574 19.8765 534.53 19.8405C535.485 19.8045 536.198 19.7055 536.666 19.5436C537.144 19.3816 537.458 19.1207 537.608 18.7607C537.758 18.4008 537.833 17.8969 537.833 17.2491V14.8601L530.693 14.7791C529.428 14.7611 528.406 14.7791 527.629 14.8331C526.86 14.8781 526.275 14.9861 525.872 15.1571C525.469 15.319 525.197 15.58 525.056 15.9399C524.925 16.2908 524.86 16.7677 524.86 17.3705C524.86 17.9554 524.925 18.4188 525.056 18.7607C525.197 19.1027 525.469 19.3546 525.872 19.5166C526.275 19.6785 526.86 19.782 527.629 19.827C528.406 19.872 529.428 19.8945 530.693 19.8945Z" fill="white"/>
<path d="M496.96 21.7031L490.748 6.1546H493.812L498.745 19.611H498.774L504.157 6.1546H506.855L512.182 19.611H512.21L517.2 6.1546H520.264L514.051 21.7031H510.453L505.52 9.11043H505.492L500.559 21.7031H496.96Z" fill="white"/>
<path d="M488.963 17.0871C488.963 18.2478 488.78 19.1611 488.415 19.827C488.059 20.4928 487.511 20.9787 486.77 21.2847C486.03 21.5906 485.084 21.784 483.931 21.865C482.788 21.955 481.425 22 479.841 22C478.033 22 476.496 21.91 475.231 21.7301C473.976 21.5591 472.959 21.2037 472.181 20.6638C471.413 20.1149 470.851 19.2961 470.495 18.2074C470.148 17.1186 469.975 15.6654 469.975 13.8478C469.975 12.0843 470.143 10.6716 470.481 9.60981C470.827 8.54805 471.385 7.74724 472.153 7.20736C472.921 6.66748 473.929 6.30756 475.175 6.1276C476.431 5.94765 477.963 5.85767 479.771 5.85767C481.842 5.85767 483.557 5.99713 484.915 6.27607C486.274 6.55501 487.286 7.08589 487.951 7.86871C488.626 8.65153 488.963 9.79877 488.963 11.3104V14.6442H472.687C472.697 15.7959 472.781 16.7182 472.94 17.411C473.1 18.1039 473.418 18.6258 473.896 18.9767C474.374 19.3276 475.086 19.5616 476.032 19.6785C476.988 19.7865 478.258 19.8405 479.841 19.8405C481.266 19.8405 482.413 19.8135 483.285 19.7595C484.166 19.7055 484.831 19.5885 485.281 19.4086C485.74 19.2196 486.049 18.9407 486.208 18.5718C486.368 18.2029 486.447 17.708 486.447 17.0871H488.963ZM479.771 8.01717C478.244 8.01717 477.012 8.07116 476.075 8.17914C475.147 8.28711 474.439 8.49857 473.952 8.81349C473.465 9.11942 473.132 9.57832 472.954 10.1902C472.786 10.802 472.697 11.6074 472.687 12.6061H486.377V11.3104C486.377 10.6626 486.297 10.1272 486.138 9.70429C485.988 9.27239 485.688 8.93497 485.238 8.69202C484.789 8.44008 484.123 8.26462 483.243 8.16564C482.371 8.06666 481.214 8.01717 479.771 8.01717Z" fill="white"/>
<path d="M442.033 0.971771H456.482C458.59 0.971771 460.286 1.06175 461.57 1.24171C462.863 1.42167 463.842 1.7321 464.507 2.173C465.173 2.6139 465.622 3.21676 465.857 3.98159C466.091 4.74641 466.208 5.71369 466.208 6.88343V7.4233C466.208 8.50306 466.072 9.43435 465.8 10.2172C465.538 10.991 465.027 11.6208 464.268 12.1067C463.509 12.5836 462.385 12.9211 460.895 13.119L465.59 21.7031H462.891L458.295 13.308C458.108 13.317 457.911 13.3215 457.705 13.3215C457.508 13.3215 457.302 13.3215 457.086 13.3215H444.732V21.7031H442.033V0.971771ZM444.732 11.081H456.665C458.267 11.081 459.527 11.0315 460.445 10.9325C461.373 10.8245 462.052 10.6401 462.483 10.3791C462.924 10.1182 463.205 9.74928 463.327 9.27238C463.449 8.79549 463.509 8.17913 463.509 7.4233V6.88343C463.509 6.02862 463.425 5.35378 463.256 4.85889C463.088 4.364 462.75 3.99958 462.244 3.76564C461.738 3.53169 460.984 3.38322 459.982 3.32024C458.979 3.24825 457.639 3.21226 455.962 3.21226H444.732V11.081Z" fill="white"/>
<path d="M425.701 21.7031V0.971771H428.399V21.7031H425.701Z" fill="white"/>
<path d="M411.421 22C409.481 22 407.879 21.901 406.614 21.7031C405.359 21.5141 404.422 21.0912 403.803 20.4344C403.194 19.7775 402.89 18.7562 402.89 17.3705C402.89 15.9579 403.175 14.9231 403.747 14.2663C404.328 13.6004 405.242 13.1685 406.488 12.9705C407.743 12.7726 409.388 12.6736 411.421 12.6736C413.07 12.6736 414.452 12.7096 415.567 12.7816C416.682 12.8536 417.68 12.9795 418.561 13.1595C418.542 11.9628 418.458 11.0225 418.308 10.3386C418.158 9.6458 417.877 9.13292 417.465 8.8C417.053 8.46707 416.448 8.25562 415.652 8.16564C414.865 8.06666 413.815 8.01717 412.503 8.01717C411.004 8.01717 409.828 8.04867 408.976 8.11165C408.132 8.17464 407.518 8.28711 407.134 8.44908C406.75 8.61104 406.506 8.84499 406.403 9.15092C406.31 9.45685 406.263 9.85276 406.263 10.3386H403.564C403.564 9.36687 403.7 8.58405 403.972 7.99018C404.253 7.39632 404.726 6.94642 405.391 6.64049C406.057 6.33456 406.966 6.1276 408.118 6.01963C409.28 5.91165 410.742 5.85767 412.503 5.85767C414.396 5.85767 415.919 5.97464 417.071 6.20859C418.233 6.44253 419.114 6.86544 419.714 7.4773C420.323 8.08016 420.73 8.92597 420.936 10.0147C421.152 11.1035 421.26 12.5072 421.26 14.2258V21.7031H418.561V20.6368C418.243 20.9607 417.802 21.2217 417.24 21.4196C416.678 21.6176 415.928 21.7615 414.991 21.8515C414.063 21.9505 412.873 22 411.421 22ZM411.421 19.8945C413.023 19.8945 414.302 19.8765 415.258 19.8405C416.214 19.8045 416.926 19.7055 417.395 19.5436C417.872 19.3816 418.186 19.1207 418.336 18.7607C418.486 18.4008 418.561 17.8969 418.561 17.2491V14.8601L411.421 14.7791C410.156 14.7611 409.135 14.7791 408.357 14.8331C407.589 14.8781 407.003 14.9861 406.6 15.1571C406.197 15.319 405.926 15.58 405.785 15.9399C405.654 16.2908 405.588 16.7677 405.588 17.3705C405.588 17.9554 405.654 18.4188 405.785 18.7607C405.926 19.1027 406.197 19.3546 406.6 19.5166C407.003 19.6785 407.589 19.782 408.357 19.827C409.135 19.872 410.156 19.8945 411.421 19.8945Z" fill="white"/>
<path d="M399.375 17.0871C399.375 18.2478 399.192 19.1611 398.827 19.827C398.471 20.4928 397.923 20.9787 397.183 21.2847C396.442 21.5906 395.496 21.784 394.343 21.865C393.2 21.955 391.837 22 390.253 22C388.445 22 386.908 21.91 385.643 21.7301C384.388 21.5591 383.371 21.2037 382.593 20.6638C381.825 20.1149 381.263 19.2961 380.907 18.2074C380.56 17.1186 380.387 15.6654 380.387 13.8478C380.387 12.0843 380.555 10.6716 380.893 9.60981C381.239 8.54805 381.797 7.74724 382.565 7.20736C383.334 6.66748 384.341 6.30756 385.587 6.1276C386.843 5.94765 388.375 5.85767 390.183 5.85767C392.254 5.85767 393.969 5.99713 395.327 6.27607C396.686 6.55501 397.698 7.08589 398.363 7.86871C399.038 8.65153 399.375 9.79877 399.375 11.3104V14.6442H383.099C383.109 15.7959 383.193 16.7182 383.352 17.411C383.512 18.1039 383.83 18.6258 384.308 18.9767C384.786 19.3276 385.498 19.5616 386.444 19.6785C387.4 19.7865 388.67 19.8405 390.253 19.8405C391.678 19.8405 392.825 19.8135 393.697 19.7595C394.578 19.7055 395.243 19.5885 395.693 19.4086C396.152 19.2196 396.461 18.9407 396.62 18.5718C396.78 18.2029 396.859 17.708 396.859 17.0871H399.375ZM390.183 8.01717C388.656 8.01717 387.424 8.07116 386.487 8.17914C385.559 8.28711 384.852 8.49857 384.364 8.81349C383.877 9.11942 383.544 9.57832 383.366 10.1902C383.198 10.802 383.109 11.6074 383.099 12.6061H396.789V11.3104C396.789 10.6626 396.709 10.1272 396.55 9.70429C396.4 9.27239 396.1 8.93497 395.651 8.69202C395.201 8.44008 394.536 8.26462 393.655 8.16564C392.783 8.06666 391.626 8.01717 390.183 8.01717Z" fill="white"/>
<path d="M352.445 0.971771H366.894C369.002 0.971771 370.698 1.06175 371.982 1.24171C373.275 1.42167 374.254 1.7321 374.919 2.173C375.585 2.6139 376.034 3.21676 376.269 3.98159C376.503 4.74641 376.62 5.71369 376.62 6.88343V7.4233C376.62 8.50306 376.484 9.43435 376.213 10.2172C375.95 10.991 375.439 11.6208 374.68 12.1067C373.922 12.5836 372.797 12.9211 371.307 13.119L376.002 21.7031H373.303L368.707 13.308C368.52 13.317 368.323 13.3215 368.117 13.3215C367.92 13.3215 367.714 13.3215 367.498 13.3215H355.144V21.7031H352.445V0.971771ZM355.144 11.081H367.077C368.679 11.081 369.939 11.0315 370.858 10.9325C371.785 10.8245 372.464 10.6401 372.895 10.3791C373.336 10.1182 373.617 9.74928 373.739 9.27238C373.861 8.79549 373.922 8.17913 373.922 7.4233V6.88343C373.922 6.02862 373.837 5.35378 373.669 4.85889C373.5 4.364 373.163 3.99958 372.657 3.76564C372.151 3.53169 371.396 3.38322 370.394 3.32024C369.391 3.24825 368.051 3.21226 366.374 3.21226H355.144V11.081Z" fill="white"/>
<path d="M337.014 21.7031V19.1117H339.711V21.7031H337.014Z" fill="white"/>
<path d="M323.816 22C321.848 22 320.265 21.937 319.065 21.811C317.875 21.6851 316.971 21.4511 316.353 21.1092C315.744 20.7673 315.331 20.2814 315.116 19.6515C314.91 19.0217 314.807 18.2029 314.807 17.1951H317.393C317.393 17.762 317.435 18.2209 317.519 18.5718C317.604 18.9137 317.843 19.1791 318.236 19.3681C318.63 19.5481 319.267 19.674 320.148 19.746C321.038 19.809 322.284 19.8405 323.886 19.8405C325.582 19.8405 326.899 19.809 327.836 19.746C328.782 19.674 329.461 19.5481 329.874 19.3681C330.286 19.1791 330.534 18.9092 330.619 18.5583C330.712 18.2074 330.759 17.744 330.759 17.1681C330.759 16.4663 330.694 15.9399 330.562 15.589C330.431 15.238 330.122 15.0041 329.635 14.8871C329.148 14.7611 328.37 14.6937 327.302 14.6847L320.864 14.6172C319.206 14.5992 317.941 14.4642 317.07 14.2123C316.198 13.9603 315.603 13.5194 315.285 12.8896C314.966 12.2507 314.807 11.3464 314.807 10.1767C314.807 9.08793 314.98 8.24662 315.327 7.65276C315.683 7.05889 316.236 6.63599 316.985 6.38405C317.735 6.1321 318.709 5.98364 319.909 5.93865C321.108 5.88466 322.556 5.85767 324.252 5.85767C326.247 5.85767 327.831 5.91615 329.002 6.03313C330.183 6.1501 331.064 6.37055 331.645 6.69448C332.235 7.0184 332.619 7.49079 332.797 8.11165C332.985 8.72351 333.078 9.52433 333.078 10.5141H330.492C330.492 9.92924 330.45 9.47034 330.366 9.13742C330.281 8.7955 330.052 8.54805 329.677 8.39509C329.312 8.23313 328.712 8.12965 327.878 8.08466C327.053 8.03967 325.891 8.01717 324.392 8.01717C322.687 8.01717 321.361 8.03517 320.415 8.07116C319.468 8.10715 318.784 8.19264 318.363 8.3276C317.941 8.46257 317.683 8.67852 317.59 8.97546C317.496 9.26339 317.449 9.6638 317.449 10.1767C317.449 10.6986 317.477 11.1125 317.533 11.4184C317.599 11.7153 317.763 11.9403 318.025 12.0932C318.288 12.2462 318.714 12.3497 319.304 12.4037C319.904 12.4487 320.738 12.4757 321.806 12.4847L327.358 12.5386C329.026 12.5566 330.291 12.6916 331.153 12.9436C332.024 13.1865 332.614 13.6409 332.924 14.3067C333.242 14.9636 333.402 15.9174 333.402 17.1681C333.402 18.2928 333.228 19.1791 332.882 19.827C332.544 20.4748 332.001 20.9562 331.251 21.2712C330.502 21.5771 329.513 21.775 328.285 21.865C327.067 21.955 325.578 22 323.816 22Z" fill="white"/>
<path d="M311.166 17.0871C311.166 18.2478 310.983 19.1611 310.618 19.827C310.262 20.4928 309.714 20.9787 308.974 21.2847C308.233 21.5906 307.287 21.784 306.134 21.865C304.991 21.955 303.628 22 302.044 22C300.236 22 298.699 21.91 297.434 21.7301C296.179 21.5591 295.162 21.2037 294.384 20.6638C293.616 20.1149 293.054 19.2961 292.698 18.2074C292.351 17.1186 292.178 15.6654 292.178 13.8478C292.178 12.0843 292.346 10.6716 292.684 9.60981C293.03 8.54805 293.588 7.74724 294.356 7.20736C295.125 6.66748 296.132 6.30756 297.378 6.1276C298.634 5.94765 300.166 5.85767 301.974 5.85767C304.045 5.85767 305.76 5.99713 307.118 6.27607C308.477 6.55501 309.489 7.08589 310.154 7.86871C310.829 8.65153 311.166 9.79877 311.166 11.3104V14.6442H294.89C294.9 15.7959 294.984 16.7182 295.143 17.411C295.303 18.1039 295.621 18.6258 296.099 18.9767C296.577 19.3276 297.289 19.5616 298.235 19.6785C299.191 19.7865 300.461 19.8405 302.044 19.8405C303.469 19.8405 304.617 19.8135 305.488 19.7595C306.369 19.7055 307.034 19.5885 307.484 19.4086C307.943 19.2196 308.252 18.9407 308.411 18.5718C308.571 18.2029 308.65 17.708 308.65 17.0871H311.166ZM301.974 8.01717C300.447 8.01717 299.215 8.07116 298.278 8.17914C297.35 8.28711 296.643 8.49857 296.155 8.81349C295.668 9.11942 295.335 9.57832 295.157 10.1902C294.989 10.802 294.9 11.6074 294.89 12.6061H308.58V11.3104C308.58 10.6626 308.5 10.1272 308.341 9.70429C308.191 9.27239 307.891 8.93497 307.442 8.69202C306.992 8.44008 306.327 8.26462 305.446 8.16564C304.574 8.06666 303.417 8.01717 301.974 8.01717Z" fill="white"/>
<path d="M272.388 21.7031V8.12515H269.689V6.1546H272.388V5.47975C272.388 4.00409 272.636 2.87035 273.133 2.07853C273.639 1.28671 274.421 0.742331 275.48 0.445399C276.548 0.148466 277.921 0 279.598 0H282.733V2.10552H279.584C278.244 2.10552 277.256 2.1865 276.619 2.34847C275.981 2.51043 275.564 2.83436 275.368 3.32025C275.18 3.79714 275.087 4.51697 275.087 5.47975V6.1546H282.733V8.12515H275.087V21.7031H272.388ZM285.431 21.7031V0.971779H288.13V21.7031H285.431Z" fill="white"/>
<path d="M257.546 21.7031V8.12515H254.848V6.1546H257.546V5.47975C257.546 4.00409 257.795 2.87035 258.291 2.07853C258.797 1.28671 259.58 0.742331 260.638 0.445399C261.707 0.148466 263.079 0 264.757 0H267.891V2.10552H264.742C263.403 2.10552 262.414 2.1865 261.777 2.34847C261.14 2.51043 260.723 2.83436 260.526 3.32025C260.339 3.79714 260.245 4.51697 260.245 5.47975V6.1546H267.891V8.12515H260.245V21.7031H257.546Z" fill="white"/>
<path d="M241.467 22C239.527 22 237.925 21.901 236.66 21.7031C235.405 21.5141 234.468 21.0912 233.849 20.4344C233.24 19.7775 232.936 18.7562 232.936 17.3705C232.936 15.9579 233.221 14.9231 233.793 14.2663C234.374 13.6004 235.287 13.1685 236.534 12.9705C237.789 12.7726 239.434 12.6736 241.467 12.6736C243.116 12.6736 244.498 12.7096 245.613 12.7816C246.728 12.8536 247.726 12.9795 248.607 13.1595C248.588 11.9628 248.504 11.0225 248.354 10.3386C248.204 9.6458 247.923 9.13292 247.511 8.8C247.098 8.46707 246.494 8.25562 245.698 8.16564C244.91 8.06666 243.861 8.01717 242.549 8.01717C241.05 8.01717 239.874 8.04867 239.021 8.11165C238.178 8.17464 237.564 8.28711 237.18 8.44908C236.796 8.61104 236.552 8.84499 236.449 9.15092C236.356 9.45685 236.309 9.85276 236.309 10.3386H233.61C233.61 9.36687 233.746 8.58405 234.018 7.99018C234.299 7.39632 234.772 6.94642 235.437 6.64049C236.103 6.33456 237.012 6.1276 238.164 6.01963C239.326 5.91165 240.788 5.85767 242.549 5.85767C244.442 5.85767 245.965 5.97464 247.117 6.20859C248.279 6.44253 249.16 6.86544 249.76 7.4773C250.369 8.08016 250.776 8.92597 250.982 10.0147C251.198 11.1035 251.306 12.5072 251.306 14.2258V21.7031H248.607V20.6368C248.288 20.9607 247.848 21.2217 247.286 21.4196C246.724 21.6176 245.974 21.7615 245.037 21.8515C244.109 21.9505 242.919 22 241.467 22ZM241.467 19.8945C243.069 19.8945 244.348 19.8765 245.304 19.8405C246.26 19.8045 246.972 19.7055 247.44 19.5436C247.918 19.3816 248.232 19.1207 248.382 18.7607C248.532 18.4008 248.607 17.8969 248.607 17.2491V14.8601L241.467 14.7791C240.202 14.7611 239.181 14.7791 238.403 14.8331C237.635 14.8781 237.049 14.9861 236.646 15.1571C236.243 15.319 235.971 15.58 235.831 15.9399C235.7 16.2908 235.634 16.7677 235.634 17.3705C235.634 17.9554 235.7 18.4188 235.831 18.7607C235.971 19.1027 236.243 19.3546 236.646 19.5166C237.049 19.6785 237.635 19.782 238.403 19.827C239.181 19.872 240.202 19.8945 241.467 19.8945Z" fill="white"/>
<path d="M204.529 0.971771H218.978C221.086 0.971771 222.782 1.06175 224.066 1.24171C225.359 1.42167 226.338 1.7321 227.003 2.173C227.669 2.6139 228.118 3.21676 228.353 3.98159C228.587 4.74641 228.704 5.71369 228.704 6.88343V7.4233C228.704 8.50306 228.568 9.43435 228.296 10.2172C228.034 10.991 227.523 11.6208 226.764 12.1067C226.006 12.5836 224.881 12.9211 223.391 13.119L228.086 21.7031H225.387L220.791 13.308C220.604 13.317 220.407 13.3215 220.201 13.3215C220.004 13.3215 219.798 13.3215 219.582 13.3215H207.228V21.7031H204.529V0.971771ZM207.228 11.081H219.161C220.763 11.081 222.023 11.0315 222.941 10.9325C223.869 10.8245 224.548 10.6401 224.979 10.3791C225.42 10.1182 225.701 9.74928 225.823 9.27238C225.945 8.79549 226.006 8.17913 226.006 7.4233V6.88343C226.006 6.02862 225.921 5.35378 225.753 4.85889C225.584 4.364 225.247 3.99958 224.741 3.76564C224.235 3.53169 223.48 3.38322 222.478 3.32024C221.475 3.24825 220.135 3.21226 218.458 3.21226H207.228V11.081Z" fill="white"/>
<path d="M172.934 21.7031V6.1546H175.632V8.21963C176.035 7.69775 176.532 7.26135 177.122 6.91043C177.722 6.55951 178.518 6.29857 179.511 6.1276C180.514 5.94765 181.826 5.85767 183.447 5.85767C185.564 5.85767 187.232 6.05562 188.45 6.45153C189.678 6.84744 190.549 7.55378 191.065 8.57055C191.58 9.58732 191.838 11.027 191.838 12.8896V21.7031H189.125V12.8896C189.125 11.8278 189.031 10.973 188.844 10.3252C188.657 9.6773 188.333 9.18691 187.874 8.85399C187.424 8.52106 186.801 8.30061 186.005 8.19264C185.208 8.07566 184.196 8.01718 182.969 8.01718C181.095 8.01718 179.624 8.16564 178.556 8.46257C177.487 8.75951 176.733 9.2274 176.293 9.86625C175.852 10.4961 175.632 11.3194 175.632 12.3362V21.7031H172.934Z" fill="white"/>
<path d="M166.581 21.7031V7.0184H169.279V21.7031H166.581ZM166.581 3.56318V0.971771H169.279V3.56318H166.581Z" fill="white"/>
<path d="M153.201 22C151.262 22 149.659 21.901 148.395 21.7031C147.139 21.5141 146.202 21.0912 145.584 20.4344C144.974 19.7775 144.67 18.7562 144.67 17.3705C144.67 15.9579 144.956 14.9231 145.527 14.2663C146.108 13.6004 147.022 13.1685 148.268 12.9705C149.524 12.7726 151.168 12.6736 153.201 12.6736C154.851 12.6736 156.233 12.7096 157.348 12.7816C158.463 12.8536 159.461 12.9795 160.341 13.1595C160.323 11.9628 160.238 11.0225 160.088 10.3386C159.938 9.6458 159.657 9.13292 159.245 8.8C158.833 8.46707 158.228 8.25562 157.432 8.16564C156.645 8.06666 155.595 8.01717 154.284 8.01717C152.784 8.01717 151.608 8.04867 150.756 8.11165C149.912 8.17464 149.299 8.28711 148.915 8.44908C148.53 8.61104 148.287 8.84499 148.184 9.15092C148.09 9.45685 148.043 9.85276 148.043 10.3386H145.345C145.345 9.36687 145.48 8.58405 145.752 7.99018C146.033 7.39632 146.506 6.94642 147.172 6.64049C147.837 6.33456 148.746 6.1276 149.898 6.01963C151.06 5.91165 152.522 5.85767 154.284 5.85767C156.176 5.85767 157.699 5.97464 158.852 6.20859C160.013 6.44253 160.894 6.86544 161.494 7.4773C162.103 8.08016 162.511 8.92597 162.717 10.0147C162.932 11.1035 163.04 12.5072 163.04 14.2258V21.7031H160.341V20.6368C160.023 20.9607 159.582 21.2217 159.02 21.4196C158.458 21.6176 157.708 21.7615 156.771 21.8515C155.844 21.9505 154.654 22 153.201 22ZM153.201 19.8945C154.804 19.8945 156.083 19.8765 157.038 19.8405C157.994 19.8045 158.706 19.7055 159.175 19.5436C159.653 19.3816 159.967 19.1207 160.116 18.7607C160.266 18.4008 160.341 17.8969 160.341 17.2491V14.8601L153.201 14.7791C151.936 14.7611 150.915 14.7791 150.137 14.8331C149.369 14.8781 148.783 14.9861 148.38 15.1571C147.978 15.319 147.706 15.58 147.565 15.9399C147.434 16.2908 147.369 16.7677 147.369 17.3705C147.369 17.9554 147.434 18.4188 147.565 18.7607C147.706 19.1027 147.978 19.3546 148.38 19.5166C148.783 19.6785 149.369 19.782 150.137 19.827C150.915 19.872 151.936 19.8945 153.201 19.8945Z" fill="white"/>
<path d="M122.167 21.7031V0.971771H124.866V8.21962C125.268 7.69774 125.765 7.26134 126.355 6.91042C126.955 6.5595 127.752 6.29856 128.745 6.1276C129.747 5.94764 131.059 5.85766 132.68 5.85766C134.798 5.85766 136.466 6.05562 137.684 6.45153C138.911 6.84744 139.783 7.55377 140.298 8.57054C140.813 9.58731 141.071 11.027 141.071 12.8896V21.7031H138.358V12.8896C138.358 11.8278 138.265 10.973 138.077 10.3251C137.89 9.67729 137.567 9.1869 137.108 8.85398C136.658 8.52105 136.035 8.3006 135.238 8.19263C134.442 8.07566 133.43 8.01717 132.202 8.01717C130.328 8.01717 128.857 8.16564 127.789 8.46257C126.721 8.7595 125.967 9.22739 125.526 9.86625C125.086 10.4961 124.866 11.3194 124.866 12.3362V21.7031H122.167Z" fill="white"/>
<path d="M109.475 22C107.667 22 106.13 21.91 104.865 21.7301C103.6 21.5591 102.579 21.2037 101.801 20.6638C101.023 20.1149 100.457 19.2961 100.101 18.2074C99.7444 17.1186 99.5664 15.6654 99.5664 13.8478C99.5664 12.0843 99.7444 10.6716 100.101 9.60981C100.457 8.54805 101.023 7.74724 101.801 7.20736C102.579 6.66748 103.6 6.30756 104.865 6.1276C106.13 5.94765 107.667 5.85767 109.475 5.85767C111.64 5.85767 113.42 5.97914 114.816 6.22208C116.222 6.45603 117.262 6.94192 117.936 7.67975C118.611 8.41758 118.948 9.54233 118.948 11.054H116.362C116.362 10.1812 116.175 9.52883 115.8 9.09693C115.425 8.66503 114.741 8.37709 113.748 8.23313C112.755 8.08916 111.331 8.01717 109.475 8.01717C107.807 8.01717 106.486 8.08466 105.512 8.21963C104.537 8.3546 103.82 8.62004 103.361 9.01595C102.902 9.40286 102.602 9.98323 102.462 10.7571C102.331 11.5309 102.265 12.5611 102.265 13.8478C102.265 15.1795 102.331 16.2458 102.462 17.0466C102.602 17.8474 102.902 18.4503 103.361 18.8552C103.82 19.2511 104.537 19.5166 105.512 19.6515C106.486 19.7775 107.807 19.8405 109.475 19.8405C110.89 19.8405 112.047 19.8045 112.947 19.7325C113.846 19.6515 114.544 19.4986 115.041 19.2736C115.538 19.0397 115.88 18.7067 116.067 18.2748C116.264 17.8339 116.362 17.2491 116.362 16.5202H118.948C118.948 17.726 118.761 18.6932 118.386 19.4221C118.011 20.1509 117.44 20.6998 116.671 21.0687C115.903 21.4376 114.919 21.6851 113.72 21.811C112.53 21.937 111.115 22 109.475 22Z" fill="white"/>
<path d="M81.5752 21.7031V0.971771H84.2738V12.9435L95.0259 6.15459H99.116L87.6892 13.4564L99.5657 21.7031H95.546L84.2738 13.7264V21.7031H81.5752Z" fill="white"/>
<path d="M68.8561 22C67.0477 22 65.511 21.91 64.246 21.7301C62.9811 21.5591 61.9597 21.2037 61.182 20.6638C60.4043 20.1149 59.8374 19.2961 59.4814 18.2074C59.1253 17.1186 58.9473 15.6654 58.9473 13.8478C58.9473 12.0843 59.1253 10.6716 59.4814 9.60981C59.8374 8.54805 60.4043 7.74724 61.182 7.20736C61.9597 6.66748 62.9811 6.30756 64.246 6.1276C65.511 5.94765 67.0477 5.85767 68.8561 5.85767C71.0206 5.85767 72.8009 5.97914 74.1971 6.22208C75.6026 6.45603 76.6426 6.94192 77.3173 7.67975C77.9919 8.41758 78.3293 9.54233 78.3293 11.054H75.7431C75.7431 10.1812 75.5557 9.52883 75.1809 9.09693C74.8061 8.66503 74.1221 8.37709 73.1289 8.23313C72.1356 8.08916 70.7114 8.01717 68.8561 8.01717C67.1882 8.01717 65.8671 8.08466 64.8926 8.21963C63.9181 8.3546 63.2013 8.62004 62.7421 9.01595C62.283 9.40286 61.9832 9.98323 61.8426 10.7571C61.7114 11.5309 61.6458 12.5611 61.6458 13.8478C61.6458 15.1795 61.7114 16.2458 61.8426 17.0466C61.9832 17.8474 62.283 18.4503 62.7421 18.8552C63.2013 19.2511 63.9181 19.5166 64.8926 19.6515C65.8671 19.7775 67.1882 19.8405 68.8561 19.8405C70.271 19.8405 71.4282 19.8045 72.3277 19.7325C73.2273 19.6515 73.9253 19.4986 74.4219 19.2736C74.9186 19.0397 75.2606 18.7067 75.448 18.2748C75.6447 17.8339 75.7431 17.2491 75.7431 16.5202H78.3293C78.3293 17.726 78.1419 18.6932 77.7671 19.4221C77.3923 20.1509 76.8207 20.6998 76.0523 21.0687C75.284 21.4376 74.3001 21.6851 73.1008 21.811C71.9108 21.937 70.4959 22 68.8561 22Z" fill="white"/>
<path d="M46.3405 22C44.5321 22 42.9954 21.91 41.7304 21.7301C40.4655 21.5591 39.4441 21.2037 38.6664 20.6638C37.8887 20.1149 37.3218 19.2961 36.9657 18.2074C36.6097 17.1186 36.4316 15.6654 36.4316 13.8478C36.4316 12.0843 36.6097 10.6716 36.9657 9.60981C37.3218 8.54805 37.8887 7.74724 38.6664 7.20736C39.4441 6.66748 40.4655 6.30756 41.7304 6.1276C42.9954 5.94765 44.5321 5.85767 46.3405 5.85767C48.1583 5.85767 49.695 5.94765 50.9506 6.1276C52.2155 6.30756 53.2369 6.66748 54.0146 7.20736C54.7923 7.74724 55.3592 8.54805 55.7152 9.60981C56.0713 10.6716 56.2493 12.0843 56.2493 13.8478C56.2493 15.6654 56.0713 17.1186 55.7152 18.2074C55.3592 19.2961 54.7923 20.1149 54.0146 20.6638C53.2369 21.2037 52.2155 21.5591 50.9506 21.7301C49.695 21.91 48.1583 22 46.3405 22ZM53.5508 13.8478C53.5508 12.5611 53.4805 11.5309 53.3399 10.7571C53.2088 9.98323 52.9136 9.40286 52.4545 9.01595C51.9953 8.62004 51.2785 8.3546 50.304 8.21963C49.3389 8.08466 48.0177 8.01717 46.3405 8.01717C44.6726 8.01717 43.3514 8.08466 42.377 8.21963C41.4025 8.3546 40.6857 8.62004 40.2265 9.01595C39.7674 9.40286 39.4675 9.98323 39.327 10.7571C39.1958 11.5309 39.1302 12.5611 39.1302 13.8478C39.1302 15.1795 39.1958 16.2458 39.327 17.0466C39.4675 17.8474 39.7674 18.4503 40.2265 18.8552C40.6857 19.2511 41.4025 19.5166 42.377 19.6515C43.3514 19.7775 44.6726 19.8405 46.3405 19.8405C48.0177 19.8405 49.3389 19.7775 50.304 19.6515C51.2785 19.5166 51.9953 19.2511 52.4545 18.8552C52.9136 18.4503 53.2088 17.8474 53.3399 17.0466C53.4805 16.2458 53.5508 15.1795 53.5508 13.8478Z" fill="white"/>
<path d="M29.6836 21.7031V0.971771H32.3813V21.7031H29.6836Z" fill="white"/>
<path d="M0 21.7031V0.971771H17.2035C18.8338 0.971771 20.1691 1.12024 21.2092 1.41717C22.2586 1.7051 23.0316 2.22249 23.5282 2.96932C24.0342 3.70715 24.2872 4.75541 24.2872 6.1141C24.2872 7.33782 23.9921 8.35009 23.4018 9.15091C22.8114 9.95173 21.9072 10.3926 20.6891 10.4736C22.282 10.6266 23.4299 11.1755 24.1326 12.1202C24.8354 13.056 25.1868 14.2348 25.1868 15.6564C25.1868 16.8892 25.0368 17.9014 24.737 18.6932C24.4465 19.4851 23.9546 20.1014 23.2612 20.5423C22.5678 20.9742 21.6261 21.2757 20.4361 21.4466C19.2555 21.6176 17.7797 21.7031 16.0088 21.7031H0ZM2.69858 9.60981H15.2779C16.7303 9.60981 17.9203 9.56032 18.8479 9.46134C19.7755 9.36236 20.4642 9.06993 20.914 8.58404C21.3638 8.09815 21.5886 7.27484 21.5886 6.1141C21.5886 5.20531 21.4528 4.53946 21.181 4.11656C20.9187 3.69365 20.4689 3.42371 19.8318 3.30674C19.1946 3.18977 18.3185 3.13128 17.2035 3.13128H2.69858V9.60981ZM2.69858 19.5435H16.0088C17.2925 19.5435 18.3513 19.5121 19.1852 19.4491C20.0285 19.3861 20.6891 19.2331 21.167 18.9902C21.6542 18.7472 21.9962 18.3648 22.193 17.8429C22.3898 17.3121 22.4882 16.5832 22.4882 15.6564C22.4882 14.7026 22.3008 13.9603 21.926 13.4294C21.5605 12.8986 21.0452 12.5161 20.3799 12.2822C19.724 12.0483 18.9603 11.9043 18.0889 11.8503C17.2175 11.7963 16.2805 11.7693 15.2779 11.7693H2.69858V19.5435Z" fill="white"/>
</svg>
